<svg width="64px" height="63px" viewBox="0 0 64 63" version="1.1" xmlns="http://www.w3.org/2000/svg" xmlns:xlink="http://www.w3.org/1999/xlink">
    <g stroke="none" stroke-width="1" fill="none" fill-rule="evenodd">
        <g fill="currentColor">
            <path d="M63.933,18 L63.933,60.7 C63.954287,61.2947112 63.7360245,61.8730891 63.3271444,62.3054681 C62.9182643,62.7378471 62.3529721,62.9880557 61.758,63 L3.158,63 C2.56294244,62.9880496 1.99755367,62.7378734 1.58851557,62.3055261 C1.17947747,61.8731789 0.960987193,61.2948065 0.982,60.7 L0.982,17.8 L0.982,17.8 C0.978963383,17.6309067 1.00155285,17.4623285 1.049,17.3 C1.06,17.2 1.074,17.2 1.088,17.1 C1.14970528,16.9697909 1.20412261,16.8362515 1.251,16.7 L1.282,16.7 L10.074,1.1 C10.449433,0.418626925 11.1670485,-0.00327420763 11.945,3.63862539e-12 L52.969,3.63862539e-12 C53.7473093,-0.00364092102 54.4653951,0.418311256 54.841,1.1 L63.509,16.4 C63.7965385,16.8105322 63.9524352,17.2987991 63.956,17.8 C63.951,17.9 63.938,17.9 63.933,18 Z M59.582,20.1 L41.529,20.1 L41.529,15.5 L57.939,15.5 L51.725,4.6 L36.669,4.6 L38.738,15.6 L38.738,34.6 L26.493,34.6 L26.493,15.6 L28.562,4.6 L13.196,4.6 L6.983,15.5 L23.703,15.5 L23.703,20.1 L5.339,20.1 L5.339,58.4 L59.582,58.4 L59.582,20.1 Z M12.61,38.5 L17.693,38.5 C18.4101505,38.5043257 18.991372,39.082877 18.999,39.8 C19.015793,40.159985 18.8866622,40.5115238 18.6408378,40.7750415 C18.3950134,41.0385592 18.0532825,41.1917726 17.693,41.2 L12.61,41.2 C12.2497175,41.1917726 11.9079866,41.0385592 11.6621622,40.7750415 C11.4163378,40.5115238 11.287207,40.159985 11.304,39.8 C11.311628,39.082877 11.8928495,38.5043257 12.61,38.5 L12.61,38.5 Z M12.61,44 L27.517,44 C28.2508953,44.0525529 28.8188792,44.6642279 28.817,45.4 C28.8337861,45.7589705 28.705467,46.1096039 28.4609382,46.3729426 C28.2164094,46.6362813 27.8762287,46.7901861 27.517,46.8 L12.61,46.8 C12.2497175,46.7917726 11.9079866,46.6385592 11.6621622,46.3750415 C11.4163378,46.1115238 11.287207,45.759985 11.304,45.4 C11.3023349,44.662071 11.8737343,44.0495449 12.61,44 L12.61,44 Z M12.61,49.6 L27.517,49.6 C27.8762287,49.6098139 28.2164094,49.7637187 28.4609382,50.0270574 C28.705467,50.2903961 28.8337861,50.6410295 28.817,51 C28.8188792,51.7357721 28.2508953,52.3474471 27.517,52.4 L12.61,52.4 C11.8737343,52.3504551 11.3023349,51.737929 11.304,51 C11.287207,50.640015 11.4163378,50.2884762 11.6621622,50.0249585 C11.9079866,49.7614408 12.2497175,49.6082274 12.61,49.6 Z"></path>
        </g>
    </g>
</svg>