<svg width="67px" height="57px" viewBox="0 0 67 57" version="1.1" xmlns="http://www.w3.org/2000/svg" xmlns:xlink="http://www.w3.org/1999/xlink">
    <g stroke="none" stroke-width="1" fill="none" fill-rule="evenodd">
        <g fill="currentColor" fill-rule="nonzero">
            <path d="M49.01,0 C42.9371935,0.0708908634 37.2276987,2.90539183 33.5,7.7 C29.7788466,2.90816084 24.0765715,0.0735890128 18.01,0 C9.28,0 -4.54747351e-13,6.5 -4.54747351e-13,18.6 C-4.54747351e-13,31.1 11.09,39.8 19.18,46.1 C22.24,48.5 24.49,50.2 26.32,51.6 C28.4101102,53.0787076 30.3826647,54.7169308 32.22,56.5 C32.5726792,56.8151329 33.0270971,56.9926399 33.5,57 C33.9725368,56.9907855 34.4263331,56.8135213 34.78,56.5 C36.84,54.4 38.72,53 43.75,49.2 L47.8,46.2 C54.51,41.1 67,31.6 67,18.5 C67,6.5 57.73,0 49.01,0 Z M18.01,3.6 C23.42,3.6 28.51,6.6 32,11.8 C32.3796661,12.2305009 32.9259988,12.4771243 33.5,12.4771243 C34.0740012,12.4771243 34.6203339,12.2305009 35,11.8 C38.49,6.6 43.59,3.6 49.01,3.6 C55.98,3.6 63.38,8.8 63.38,18.5 C63.38,28.9 54.21,36.8 45.6,43.3 L41.57,46.3 C37.36,49.5 35.32,51.1 33.49,52.7 C32.16,51.5 30.67,50.4 28.51,48.8 C26.76,47.4 24.51,45.7 21.4,43.3 C13.89,37.4 3.62,29.3 3.62,18.6 C3.62,8.9 11.03,3.6 18.01,3.6 Z"></path>
        </g>
    </g>
</svg>