<svg width="171px" height="83px" viewBox="0 0 171 83" version="1.1" xmlns="http://www.w3.org/2000/svg" xmlns:xlink="http://www.w3.org/1999/xlink">
    <g stroke="none" stroke-width="1" fill="none" fill-rule="evenodd">
        <g fill="currentColor" fill-rule="nonzero">
            <path d="M57.58,35.07 L50.65,35.07 L51,33.9 C51.14,33.38 51.32,32.83 51.5,32.31 C52.26,30.02 53.12,27.43 51.5,25.8 C50.679804,25.0687522 49.5949055,24.7071193 48.5,24.8 C46.0156991,24.9692545 43.5763096,25.5470046 41.28,26.51 C39.7358611,27.0407301 38.2347777,27.6893051 36.79,28.45 L36.22,28.77 L35.73,28.34 C32.2282201,25.2883593 27.0117799,25.2883593 23.51,28.34 L23.02,28.77 L22.45,28.45 C21.0052223,27.6893051 19.5041389,27.0407301 17.96,26.51 C15.6617402,25.5530061 13.2233521,24.9754932 10.74,24.8 C9.64509449,24.7071193 8.56019602,25.0687522 7.74,25.8 C6.1,27.43 7,30 7.72,32.3 C7.9,32.83 8.08,33.38 8.23,33.9 L8.55,35.07 L1.62,35.07 C0.727569445,35.0754584 0.00545844369,35.7975694 0,36.69 L0,80.92 C0.00545844369,81.8124306 0.727569445,82.5345416 1.62,82.54 L57.62,82.54 C58.0496507,82.54 58.4617041,82.3693219 58.765513,82.065513 C59.0693219,81.7617041 59.24,81.3496507 59.24,80.92 L59.24,36.69 C59.2401331,36.2533282 59.0639752,35.8350951 58.7514593,35.5301096 C58.4389433,35.2251242 58.0165387,35.059218 57.58,35.07 Z M38.34,32.17 L38.06,31.41 L38.79,31.03 C39.9488627,30.4617928 41.1410406,29.9642171 42.36,29.54 C44.196344,28.7941739 46.1174229,28.2769604 48.08,28 L49.33,27.91 L49.05,29.13 C48.89,29.81 48.6,30.68 48.41,31.25 C47.9047919,32.5297506 47.5946659,33.8781247 47.49,35.25 C47.5991563,36.668421 47.9580025,38.0564111 48.55,39.35 L48.55,39.35 C48.72,39.8 48.96,40.41 49.12,40.93 L49.51,42.16 L48.22,42.16 C46.181155,41.9995987 44.1677438,41.6036278 42.22,40.98 C41.0152399,40.6541138 39.8460893,40.2085636 38.73,39.65 L38,39.34 L38.29,38.57 C38.6776902,37.5374371 38.8742257,36.4429379 38.87,35.34 C38.8807038,34.2604206 38.7013,33.1873832 38.34,32.17 L38.34,32.17 Z M10.79,31.28 C10.6,30.71 10.31,29.84 10.16,29.16 L9.87,27.94 L11.12,28.03 C13.0812851,28.2973113 15.0023262,28.8044393 16.84,29.54 C18.0596295,29.9508105 19.2520162,30.4384533 20.41,31 L21.14,31.37 L20.86,32.14 C20.4916879,33.1561042 20.3055019,34.2292126 20.31,35.31 C20.3081974,36.4118418 20.5011658,37.5053294 20.88,38.54 L21.17,39.31 L20.43,39.68 C19.3316055,40.2288926 18.1829893,40.6709257 17,41 C15.052391,41.6241511 13.0389184,42.020134 11,42.18 L9.72,42.18 L10.07,41 C10.23,40.48 10.47,39.87 10.64,39.41 L10.64,39.41 C11.2319975,38.1164111 11.5908437,36.728421 11.7,35.31 C11.6063437,33.9277711 11.299379,32.568356 10.79,31.28 L10.79,31.28 Z M28,79.31 L3.24,79.31 L3.24,60.42 L28,60.42 L28,79.31 Z M28,57.19 L3.24,57.19 L3.24,38.31 L7.57,38.31 L7.15,39.53 C6.37,41.81 6.45,43.19 7.43,44.26 C8.33455998,45.135141 9.57712686,45.5700394 10.83,45.45 C13.2106399,45.328847 15.5646013,44.8916827 17.83,44.15 C19.4533034,43.7176 21.0180905,43.0896704 22.49,42.28 L23.05,41.97 L23.54,42.39 C24.6219293,43.3327498 25.9043579,44.0167117 27.29,44.39 L27.98,44.56 L28,57.19 Z M23.54,35.34 C23.54,31.9931544 26.2531544,29.28 29.6,29.28 C32.9468456,29.28 35.66,31.9931544 35.66,35.34 C35.66,38.6868456 32.9468456,41.4 29.6,41.4 C26.2554375,41.3944945 23.5455055,38.6845625 23.54,35.34 Z M56,79.31 L31.22,79.31 L31.22,60.42 L56,60.42 L56,79.31 Z M56,57.19 L31.22,57.19 L31.22,44.53 L31.92,44.35 C33.3017097,43.9743349 34.5803721,43.2905582 35.66,42.35 L36.15,41.93 L36.72,42.25 C38.1916619,43.0502791 39.7523972,43.6745732 41.37,44.11 C43.6357201,44.8504233 45.9895123,45.2875561 48.37,45.41 C49.6228731,45.5300394 50.86544,45.095141 51.77,44.22 C52.77,43.15 52.83,41.77 52.05,39.49 L51.63,38.27 L56,38.27 L56,57.19 Z"></path>
            <path d="M95.07,59.05 C94.8286323,59.0505612 94.5899445,58.9994138 94.37,58.9 L62,44.31 C61.434505,44.0650847 61.0445327,43.5348395 60.9792277,42.9220563 C60.9139227,42.3092731 61.1833878,41.7087508 61.6845663,41.3501589 C62.1857447,40.991567 62.8411031,40.9303805 63.4,41.19 L95.07,55.46 L150.44,30.7 L150.44,4.2 C150.434609,3.77147076 150.088529,3.42539094 149.66,3.42 L40.48,3.42 C40.0514708,3.42539094 39.7053909,3.77147076 39.7,4.2 L39.7,22.66 C39.7,23.6044069 38.9344069,24.37 37.99,24.37 C37.0455931,24.37 36.28,23.6044069 36.28,22.66 L36.28,4.2 C36.2854978,1.88268514 38.1626851,0.0054978046 40.48,0 L149.66,0 C151.979596,1.66237548e-14 153.86,1.88040405 153.86,4.2 L153.86,31.81 C153.861712,32.4811915 153.470605,33.0913194 152.86,33.37 L95.77,58.9 C95.5500555,58.9994138 95.3113677,59.0505612 95.07,59.05 Z"></path>
            <path d="M147.79,75.24 L63.56,75.24 C62.6155931,75.24 61.85,74.4744069 61.85,73.53 C61.85,72.5855931 62.6155931,71.82 63.56,71.82 L147.79,71.82 C148.220244,71.8147552 148.569275,71.4701418 148.58,71.04 L148.58,38.29 C148.58,37.3455931 149.345593,36.58 150.29,36.58 C151.234407,36.58 152,37.3455931 152,38.29 L152,71 C152.007994,72.1217503 151.567973,73.2003034 150.777577,73.9963319 C149.98718,74.7923604 148.911779,75.2400285 147.79,75.24 Z"></path>
            <path d="M166.37,54.25 C166.133159,54.247933 165.898918,54.2004058 165.68,54.11 L161.42,52.24 C161.009091,52.0557466 160.686222,51.7185283 160.52,51.3 L150.52,26.21 C150.303854,25.6348024 150.410992,24.9879855 150.801055,24.513199 C151.191117,24.0384125 151.804846,23.8077878 152.411055,23.908199 C153.017263,24.0086101 153.523854,24.4248023 153.74,25 L163.44,49.44 L165.76,50.44 L166.68,49.09 L150.61,15.09 C150.248971,14.2445967 150.620924,13.2650324 151.452082,12.8723171 C152.28324,12.4796018 153.276159,12.8142751 153.7,13.63 L170.2,48.53 C170.455355,49.0818888 170.402202,49.7273217 170.06,50.23 L167.78,53.55 C167.44953,53.9960403 166.925087,54.2564018 166.37,54.25 L166.37,54.25 Z"></path>
        </g>
    </g>
</svg>