<svg width="58px" height="71px" viewBox="0 0 58 71" version="1.1" xmlns="http://www.w3.org/2000/svg" xmlns:xlink="http://www.w3.org/1999/xlink">
    <g stroke="none" stroke-width="1" fill="none" fill-rule="evenodd">
        <g fill="currentColor">
            <path d="M57.98,15.2 C57.92,17.1 56.15,63.8 29.62,70.8 L29,71 L28.38,70.8 C1.85,63.8 0.08,17.1 0.01,15.2 L0,14.7 L0.16,14.3 C3.86,3.9 26.13,0.4 28.66,0.1 L29,0 L29.34,0.1 C31.87,0.4 54.14,3.9 57.84,14.3 L58,14.7 L57.98,15.2 Z M29,4.9 C20.73,6.2 7.39,10 4.87,15.5 C5.13,20.4 7.84,59.6 29,66 C50.16,59.6 52.87,20.4 53.12,15.5 C50.61,10 37.26,6.2 29,4.9 L29,4.9 Z"></path>
            <path d="M38.835866,45.010408 C38.5360415,45.2271593 38.1838528,45.3600606 37.874378,45.3880119 C37.3876363,45.4640658 36.8980518,45.3028762 36.5526446,44.9620978 L29,39.8104766 L21.424508,44.9776818 C21.1101428,45.2645024 20.6987245,45.4251793 20.27,45.4251793 C19.8315364,45.4251793 19.4111741,45.2571194 19.0942192,44.9579402 C18.4746471,44.4699992 18.2213037,43.6443028 18.4632895,42.9089586 L21.1499679,34.0773168 L13.776067,28.5118019 C13.1037926,28.0282317 12.826611,27.1620392 13.1153792,26.3191111 C13.403246,25.6203045 14.0651813,25.1474936 14.859984,25.1002003 L24.1548805,24.9141163 L27.2055556,16.1713289 C27.4713303,15.4076187 28.1913657,14.895804 29,14.895804 C29.8086343,14.895804 30.5286697,15.4076187 30.7941711,16.1705445 L33.8451395,24.9141734 L43.1804233,25.1018272 C43.9348187,25.1474936 44.596754,25.6203045 44.9067448,26.378015 C45.173389,27.1620392 44.8962074,28.0282317 44.2419244,28.4985531 L36.8407414,34.0773342 L39.5338893,42.8997152 C39.7857357,43.6833041 39.5002906,44.5404399 38.835866,45.010408 Z M34.7235703,33.9919627 C34.60089,33.5900791 34.7425304,33.1543705 35.0780756,32.9014469 L42.7837279,27.0934682 L33.109984,26.8997997 C32.6921154,26.8914339 32.3235255,26.6240739 32.1858289,26.2294555 L29.0000002,17.0993356 L25.8141711,26.2294555 C25.6764745,26.6240739 25.3078846,26.8914339 24.890016,26.8997997 L15.2153243,27.0926919 L22.9124069,32.9018108 C23.2473408,33.1545911 23.3888364,33.5895893 23.2667105,33.9910414 L20.460695,43.2141407 L28.4365071,37.7738791 C28.7763993,37.5420403 29.2236007,37.5420403 29.5634929,37.7738791 L37.5386185,43.2136725 L34.7235703,33.9919627 Z" fill-rule="nonzero"></path>
        </g>
    </g>
</svg>